<svg width="1766" height="1600" viewBox="0 0 1766 1600" fill="none" xmlns="http://www.w3.org/2000/svg">
<circle cx="1266" cy="1099.38" r="500" fill="#292D36"/>
<path d="M107.281 600.759C500.814 -42.6009 721.7 -22.9888 1102.78 600.759L1031.78 692.884C693.712 124.777 534.61 70.6385 195.281 692.884L107.281 600.759Z" fill="#A3865B" id="fuse"/>
<path d="M803.906 636.165L1165.5 465.14L1269.5 599.383L874 789.883L803.906 636.165Z" fill="#C4C4C4"/>
<path d="M166.435 449.384L205.725 570.306H332.87L230.007 645.039L269.297 765.962L166.435 691.228L63.5725 765.962L102.862 645.039L0 570.306H127.145L166.435 449.384Z" fill="#DF2935"/>
<path d="M224.678 515.884L205.796 604.717L284.447 650.126L194.127 659.619L175.244 748.452L138.306 665.486L47.9852 674.979L115.476 614.21L78.5371 531.244L157.188 576.653L224.678 515.884Z" fill="#FFA23F"/>
<path d="M258.63 598.104L197.697 637.674L216.501 707.853L160.038 662.13L99.1054 701.701L125.142 633.872L68.6794 588.149L141.234 591.952L167.271 524.123L186.075 594.302L258.63 598.104Z" fill="#FFEA00"/>
</svg>
